<?xml version="1.0" standalone="no"?>
<!DOCTYPE svg PUBLIC "-//W3C//DTD SVG 20010904//EN"
 "http://www.w3.org/TR/2001/REC-SVG-20010904/DTD/svg10.dtd">
<svg version="1.0" xmlns="http://www.w3.org/2000/svg"
 width="509.000000pt" height="509.000000pt" viewBox="0 0 509.000000 509.000000"
 preserveAspectRatio="xMidYMid meet">
<metadata>
Created by potrace 1.11, written by Peter Selinger 2001-2013
</metadata>
<g transform="translate(0.000000,509.000000) scale(0.100000,-0.100000)"
fill="#000000" stroke="none">
<path d="M2315 4652 c-1 -2 -38 -5 -81 -7 -90 -5 -184 -13 -235 -21 -20 -2
-63 -6 -95 -9 -33 -2 -71 -6 -84 -9 -14 -3 -45 -8 -70 -11 -48 -6 -84 -11
-140 -21 -19 -4 -42 -8 -50 -9 -13 -2 -104 -16 -135 -21 -5 -1 -12 -3 -15 -4
-9 -3 -44 -10 -70 -13 -14 -2 -31 -7 -38 -11 -7 -4 -12 -5 -12 -3 0 3 -39 -4
-87 -15 -49 -10 -96 -21 -107 -23 -84 -19 -206 -48 -226 -56 -14 -4 -37 -11
-52 -13 -15 -3 -31 -7 -36 -10 -5 -3 -19 -7 -33 -10 -48 -10 -64 -14 -90 -24
-15 -6 -30 -8 -33 -5 -3 4 -6 0 -6 -7 0 -7 -3 -11 -6 -7 -3 3 -25 -1 -47 -10
-23 -8 -49 -16 -57 -17 -13 -3 -15 -40 -15 -264 l0 -262 -30 -1 c-16 -1 -41
-2 -55 -3 -33 -4 -194 -17 -248 -21 -58 -4 -55 1 -67 -95 -2 -25 -8 -65 -11
-90 -3 -25 -7 -60 -9 -79 -3 -19 -6 -48 -9 -65 -3 -17 -8 -58 -12 -91 -3 -33
-8 -69 -10 -80 -2 -11 -7 -40 -10 -65 -3 -25 -7 -56 -9 -70 -6 -32 -17 -129
-19 -155 0 -11 5 -19 11 -18 7 2 41 5 75 8 35 3 80 6 101 8 l39 4 -5 -51 c-10
-92 -16 -143 -21 -172 -3 -16 -8 -51 -11 -79 -4 -27 -8 -63 -11 -80 -6 -45
-21 -162 -29 -227 -10 -79 -16 -123 -20 -138 -2 -8 -6 -42 -10 -75 -3 -33 -8
-71 -10 -85 -3 -14 -7 -47 -10 -75 -3 -27 -7 -57 -10 -65 -2 -8 -7 -41 -10
-72 -3 -32 -6 -63 -7 -70 -2 -7 2 -12 9 -11 7 2 47 5 90 8 43 3 105 7 138 10
60 5 130 11 248 20 34 3 93 7 130 11 37 3 96 7 131 9 34 2 67 5 72 6 19 3 34
-1 34 -11 0 -6 18 -40 40 -76 22 -36 40 -70 40 -75 0 -5 5 -9 10 -9 6 0 10 -4
10 -10 0 -20 158 -235 222 -302 14 -15 24 -28 21 -28 -10 0 167 -179 281 -285
42 -39 142 -121 201 -165 33 -25 62 -47 65 -50 14 -14 70 -50 79 -50 5 0 11
-4 13 -9 4 -11 228 -152 228 -144 0 3 8 -1 18 -10 23 -21 249 -133 325 -161
58 -22 70 -23 107 -9 8 4 17 7 20 8 55 19 257 118 366 181 55 31 108 62 119
68 70 39 331 226 392 281 6 5 37 33 70 60 129 111 345 342 428 459 11 16 25
33 30 40 19 21 133 201 163 256 43 81 66 124 67 130 1 3 12 28 24 55 32 71 44
99 45 107 2 16 16 18 236 33 25 2 45 4 45 5 0 0 32 3 70 5 39 2 97 7 130 10
111 9 220 18 255 19 l35 2 1 49 c0 28 -5 56 -10 64 -8 11 -8 13 1 8 8 -5 11 2
9 23 -1 16 -5 32 -9 36 -3 4 -2 14 3 24 5 10 6 20 3 24 -10 10 -12 36 -4 36 4
0 8 7 8 15 0 8 -3 15 -6 15 -3 0 -7 42 -8 93 0 50 -4 178 -7 282 -8 288 -16
575 -20 718 -2 70 -5 130 -8 132 -3 3 -2 25 2 50 4 25 4 45 1 45 -3 0 -7 78
-9 173 -1 94 -4 177 -6 183 -2 5 -19 9 -37 7 -19 -2 -63 -5 -99 -8 -36 -2
-103 -8 -150 -11 -145 -12 -135 -14 -136 28 0 21 -2 40 -5 42 -3 3 -4 28 -3
55 3 51 -7 68 -42 76 -24 5 -224 65 -244 72 -8 3 -22 7 -30 8 -8 2 -24 6 -35
9 -11 3 -40 10 -65 17 -25 6 -54 13 -65 16 -11 3 -29 6 -40 8 -11 2 -20 4 -20
5 0 2 -11 4 -55 13 -14 3 -65 14 -115 26 -49 11 -103 22 -120 25 -16 2 -30 5
-30 6 0 1 -11 3 -25 6 -14 2 -63 10 -110 19 -145 25 -154 27 -180 30 -14 2
-43 7 -65 10 -22 3 -58 8 -80 10 -22 3 -53 6 -70 9 -80 10 -223 23 -365 32
-107 7 -519 11 -525 6z"/>
</g>
</svg>
